# Blender v2.78 (sub 0) OBJ File: 'button_down.blend'
# www.blender.org
mtllib button_up.mtl
o Cube
v 0.250000 -0.187500 0.500000
v 0.250000 0.187500 0.500000
v -0.250000 0.187500 0.500000
v -0.250000 -0.187500 0.500000
v 0.250000 -0.187500 0.312500
v 0.250000 0.187500 0.312500
v -0.250000 0.187500 0.312500
v -0.250000 -0.187500 0.312500
v -0.125000 -0.065625 0.312500
v 0.125000 0.059375 0.312500
v 0.125000 -0.065625 0.312500
v -0.125000 0.059375 0.312500
v 0.125000 -0.065625 0.187500
v 0.125000 0.059375 0.187500
v -0.125000 -0.065625 0.187500
v -0.125000 0.059375 0.187500
v -0.000000 0.187500 0.312500
v -0.125000 0.187500 0.312500
v 0.125000 0.187500 0.312500
v 0.000000 -0.187500 0.312500
v -0.125000 -0.187500 0.312500
v 0.125000 -0.187500 0.312500
vt 0.7500 0.5000
vt 0.3750 0.5000
vt 0.3750 -0.0000
vt 0.7500 -0.0000
vt 0.7500 0.6875
vt 0.3750 0.6875
vt 0.1875 1.0000
vt -0.0000 1.0000
vt -0.0000 0.8750
vt -0.0000 0.7500
vt -0.0000 0.6250
vt -0.0000 0.5000
vt 0.1875 0.5000
vt 0.7500 0.6875
vt 0.7500 0.8750
vt 0.3750 0.8750
vt 0.3750 0.6875
vt 0.3750 1.0000
vt 0.1875 1.0000
vt 0.1875 0.5000
vt 0.3750 0.5000
vt 0.3750 0.6250
vt 0.3750 0.7500
vt 0.3750 0.8750
vt 0.8750 0.2500
vt 0.7500 0.2500
vt 0.7500 0.5000
vt 0.8750 0.5000
vt 0.3750 -0.0000
vt 0.3750 0.1250
vt -0.0000 0.1250
vt -0.0000 0.0000
vt 1.0000 0.5000
vt 0.8750 0.5000
vt 0.8750 0.3750
vt 1.0000 0.3750
vt 0.8750 0.2500
vt 0.7500 0.2500
vt 0.7500 -0.0000
vt 0.8750 -0.0000
vt 0.0000 0.5000
vt 0.0000 0.3750
vt 0.3750 0.3750
vt 0.3750 0.5000
vt 1.0000 -0.0000
vt 1.0000 0.2500
vt 0.8750 0.2500
vt 0.8750 -0.0000
vt 1.0000 0.2500
vt 1.0000 0.3750
vt 0.8750 0.3750
vt 0.8750 0.2500
vt 0.1250 0.1250
vt 0.1250 0.3750
vt 0.0000 0.2500
vt 0.3750 0.2500
vt 0.2500 0.3750
vt 0.2500 0.1250
vn 0.0000 0.0000 1.0000
vn 1.0000 0.0000 -0.0000
vn -0.0000 1.0000 0.0000
vn -1.0000 -0.0000 0.0000
vn 0.0000 -1.0000 -0.0000
vn -0.0000 0.0000 -1.0000
vn 0.9999 0.0000 0.0172
usemtl Material
s off
f 1/1/1 2/2/1 3/3/1 4/4/1
f 1/1/2 5/5/2 6/6/2 2/2/2
f 2/7/3 6/8/3 19/9/3 17/10/3 18/11/3 7/12/3 3/13/3
f 3/14/4 7/15/4 8/16/4 4/17/4
f 5/18/5 1/19/5 4/20/5 8/21/5 21/22/5 20/23/5 22/24/5
f 15/25/6 16/26/6 14/27/6 13/28/6
f 7/29/6 18/30/6 21/31/6 8/32/6
f 10/33/2 11/34/2 13/35/2 14/36/2
f 13/37/5 11/38/5 9/39/5 15/40/5
f 5/41/6 22/42/6 19/43/6 6/44/6
f 12/45/3 10/46/3 14/47/3 16/48/3
f 12/49/4 16/50/4 15/51/4 9/52/4
f 21/31/6 9/53/6 11/54/6 22/42/6 20/55/6
f 17/56/6 19/43/6 10/57/6 12/58/6 18/30/6
f 11/54/7 10/57/7 19/43/7 22/42/7
f 12/58/1 9/53/1 21/31/1 18/30/1
