# Blender v2.78 (sub 0) OBJ File: 'switch_on.blend'
# www.blender.org
mtllib switch_on.mtl
o Cube
v 0.187500 0.250000 0.500000
v -0.187500 0.250000 0.500000
v -0.187500 -0.250000 0.500000
v 0.187500 -0.250000 0.500000
v 0.187500 0.250000 0.312500
v -0.187500 0.250000 0.312500
v -0.187500 -0.250000 0.312500
v 0.187500 -0.250000 0.312500
v 0.065625 -0.000000 0.312500
v 0.065625 -0.000000 0.125000
v -0.059375 -0.000000 0.312500
v 0.065625 -0.125000 0.312500
v -0.059375 0.125000 0.312500
v 0.065625 0.125000 0.312500
v -0.059375 -0.125000 0.312500
v 0.065625 0.125000 0.125000
v -0.059375 -0.000000 0.125000
v -0.059375 0.125000 0.125000
v 0.065625 -0.000000 0.375000
v 0.065625 -0.125000 0.375000
v -0.059375 -0.000000 0.375000
v -0.059375 -0.125000 0.375000
v -0.187500 -0.000000 0.312500
v -0.187500 -0.125000 0.312500
v -0.187500 0.125000 0.312500
v 0.187500 0.000000 0.312500
v 0.187500 -0.125000 0.312500
v 0.187500 0.125000 0.312500
vt 0.7500 0.5000
vt 0.3750 0.5000
vt 0.3750 -0.0000
vt 0.7500 -0.0000
vt 0.7500 0.6875
vt 0.3750 0.6875
vt 0.1875 1.0000
vt -0.0000 1.0000
vt -0.0000 0.8750
vt -0.0000 0.7500
vt -0.0000 0.6250
vt -0.0000 0.5000
vt 0.1875 0.5000
vt 0.7500 0.6875
vt 0.7500 0.8750
vt 0.3750 0.8750
vt 0.3750 0.6875
vt 0.3750 1.0000
vt 0.1875 1.0000
vt 0.1875 0.5000
vt 0.3750 0.5000
vt 0.3750 0.6250
vt 0.3750 0.7500
vt 0.3750 0.8750
vt 0.8750 0.5625
vt 0.8750 0.7500
vt 0.7500 0.7500
vt 0.7500 0.5625
vt 0.7500 0.5000
vt 0.8750 0.5000
vt 0.3750 -0.0000
vt 0.3750 0.1250
vt -0.0000 0.1250
vt -0.0000 0.0000
vt 0.1250 0.1250
vt 0.2500 0.1250
vt 0.2500 0.2500
vt 0.1250 0.2500
vt 0.7500 0.8125
vt 0.8750 0.8125
vt 0.8750 1.0000
vt 0.7500 1.0000
vt 0.8750 0.7500
vt 0.8750 0.5625
vt 1.0000 0.5625
vt 1.0000 0.7500
vt 0.0000 0.5000
vt 0.0000 0.3750
vt 0.3750 0.3750
vt 0.3750 0.5000
vt 1.0000 1.0000
vt 0.8750 1.0000
vt 0.8750 0.8125
vt 1.0000 0.8125
vt 0.1250 0.3750
vt 0.1250 0.2500
vt 0.2500 0.2500
vt 0.2500 0.3750
vt 0.8750 0.5000
vt 1.0000 0.5000
vt 1.0000 0.5625
vt 0.8750 0.5625
vt 0.8750 0.7500
vt 0.8750 0.8125
vt 0.7500 0.8125
vt 0.7500 0.7500
vt 0.8750 0.6250
vt 1.0000 0.6250
vt 1.0000 0.5625
vt 0.8750 0.5625
vt 0.1250 0.1250
vt 0.1250 0.2500
vt 0.1250 0.3750
vt 0.0000 0.2500
vt 0.3750 0.2500
vt 0.2500 0.3750
vt 0.2500 0.2500
vt 0.2500 0.1250
vn -0.0000 0.0000 1.0000
vn -0.0000 1.0000 -0.0000
vn -1.0000 -0.0000 0.0000
vn 0.0000 -1.0000 0.0000
vn 1.0000 0.0000 -0.0000
vn -0.0000 0.0000 -1.0000
usemtl Material
s off
f 1/1/1 2/2/1 3/3/1 4/4/1
f 1/1/2 5/5/2 6/6/2 2/2/2
f 2/7/3 6/8/3 25/9/3 23/10/3 24/11/3 7/12/3 3/13/3
f 3/14/4 7/15/4 8/16/4 4/17/4
f 5/18/5 1/19/5 4/20/5 8/21/5 27/22/5 26/23/5 28/24/5
f 11/25/4 17/26/4 10/27/4 9/28/4 19/29/4 21/30/4
f 7/31/6 24/32/6 27/33/6 8/34/6
f 10/35/6 17/36/6 18/37/6 16/38/6
f 13/39/2 14/40/2 16/41/2 18/42/2
f 16/43/5 14/44/5 9/45/5 10/46/5
f 5/47/6 28/48/6 25/49/6 6/50/6
f 18/51/3 17/52/3 11/53/3 13/54/3
f 19/55/6 20/56/6 22/57/6 21/58/6
f 9/59/3 12/60/3 20/61/3 19/62/3
f 15/63/2 22/64/2 20/65/2 12/66/2
f 11/67/3 15/68/3 22/69/3 21/70/3
f 27/33/6 12/71/6 9/72/6 14/73/6 28/48/6 26/74/6
f 23/75/6 25/49/6 13/76/6 11/77/6 15/78/6 24/32/6
f 14/73/1 13/76/1 25/49/1 28/48/1
f 15/78/1 12/71/1 27/33/1 24/32/1
